<svg xmlns="http://www.w3.org/2000/svg" version="1.0" width="48pt" height="48pt" viewBox="0 0 48 48" preserveAspectRatio="xMidYMid meet"  xmlns:xlink="http://www.w3.org/1999/xlink"><rect id="svgEditorBackground" x="0" y="0" width="48" height="48" style="fill:none;stroke:none;"/>

<g transform="translate(0.000000,48.000000) scale(0.100000,-0.100000)" fill="#000000" stroke="none">
<path d="M251,322c-6,-10,-13,-49,-17,-86c-4,-36,-10,-66,-14,-66c-4,0,-11,20,-14,44c-8,53,-30,77,-44,49c-5,-10,-12,-31,-16,-48l-8,-30l-14,28c-11,20,-22,27,-44,27c-17,0,-30,-4,-30,-10c0,-5,11,-10,25,-10c18,0,29,-8,37,-25c17,-38,40,-27,53,25c12,47,16,44,30,-27c7,-37,29,-60,40,-43c4,6,9,39,12,73c7,73,19,105,26,67c23,-119,31,-128,59,-72c16,32,17,33,28,13c8,-15,20,-21,43,-20l32,1l-32,9c-18,5,-35,18,-38,29c-10,30,-35,24,-41,-10c-10,-46,-21,-36,-28,24c-8,62,-28,89,-45,58Z" style="fill:#ffffff;"/>
</g>
</svg>